<svg xmlns="http://www.w3.org/2000/svg" viewBox="0 0 17.35 28.16"><title>comuns</title><rect x="6.18" y="13.24" width="6" height="5" fill="#fff"/><path d="M3.79-7.51a5.66,5.66,0,0,0,1.62-.42A4,4,0,0,0,7.05-9a4.05,4.05,0,0,0,.7-1.84,5.5,5.5,0,0,0,0-1.68l-.13-.7-.71,0a5.84,5.84,0,0,0-1.62.42A4,4,0,0,0,3.7-11.7,4.24,4.24,0,0,0,2.91-9a6.1,6.1,0,0,0,.17,1.51Z" transform="translate(6.18 13.24)" fill="#fff"/><path d="M5.36,1.67A4.83,4.83,0,0,1,4.18,3.06a4.72,4.72,0,0,1-.31-1.8.89.89,0,0,1,1-.75.91.91,0,0,1,.49,1.16M2.43,3.26A4.75,4.75,0,0,1,1,2.16.9.9,0,0,1,1.19.92a.9.9,0,0,1,1.14.51,4.65,4.65,0,0,1,.1,1.83M7.36,6.38a7.07,7.07,0,0,1,.35-3.12,7.07,7.07,0,0,1-1-3,7.14,7.14,0,0,1,3.69-7.08A5.3,5.3,0,0,0,8-7.54a9.32,9.32,0,0,0-3.61.8,17.83,17.83,0,0,0-1.95.92,14.47,14.47,0,0,0-2-5.8l-1.32.77A12.42,12.42,0,0,1,.91-5.11,15.13,15.13,0,0,0-2.4-6,9.08,9.08,0,0,0-6.09-6l-.09,0A7.13,7.13,0,0,1-1,.14a7.11,7.11,0,0,1-.82,4.19A7.11,7.11,0,0,1-.13,8.24a7.13,7.13,0,0,1-2.73,6.44,7,7,0,0,0,2.63.19,4.39,4.39,0,0,0,1.88-.77,3,3,0,0,1,1.55-.63,3.12,3.12,0,0,1,1.66.26,4.08,4.08,0,0,0,2,.34,6.82,6.82,0,0,0,4.32-2.15A7.1,7.1,0,0,1,7.36,6.38" transform="translate(6.18 13.24)" fill="#f5c000"/></svg>