<svg xmlns="http://www.w3.org/2000/svg" xmlns:xlink="http://www.w3.org/1999/xlink" viewBox="0 0 36.82 24.55"><defs><clipPath id="a" transform="translate(8.27 1.33)"><path d="M0,10.67A10.67,10.67,0,0,0,8.29,21.08h4.76a10.69,10.69,0,0,0,8-8V8.29A10.67,10.67,0,0,0,0,10.67" fill="none"/></clipPath></defs><title>entulho</title><path d="M21.35,10.67A10.68,10.68,0,1,1,10.67,0,10.68,10.68,0,0,1,21.35,10.67" transform="translate(8.27 1.33)" fill="#fff"/><g clip-path="url(#a)"><rect x="5.87" y="19.21" width="9.61" height="5.34" fill="#f5c000"/><rect x="16.54" y="19.21" width="9.61" height="5.34" fill="#f5c000"/><rect x="27.22" y="19.21" width="9.61" height="5.34"/><rect x="16.01" y="6.4" width="9.61" height="5.34" fill="#f5c000"/><rect x="5.34" y="6.4" width="9.61" height="5.34" fill="#f5c000"/><rect x="26.68" y="6.4" width="9.61" height="5.34" fill="#f5c000"/><rect x="21.35" y="12.81" width="9.61" height="5.34" fill="#f5c000"/><rect x="10.67" y="12.81" width="9.61" height="5.34" fill="#f5c000"/><rect y="12.81" width="9.61" height="5.34" fill="#f5c000"/><rect x="21.35" width="9.61" height="5.34" fill="#f5c000"/><rect x="10.67" width="9.61" height="5.34" fill="#f5c000"/><rect width="9.61" height="5.34"/></g></svg>