<svg xmlns="http://www.w3.org/2000/svg" viewBox="0 0 25.16 23.15"><title>infectantes</title><path d="M-473.23,126.26a5.49,5.49,0,0,1-1.56-.69,6.8,6.8,0,0,0,2.46,1.24,6.74,6.74,0,0,0,7.59-3.16,6.76,6.76,0,0,0,7.57,3.12,6.59,6.59,0,0,0,2.46-1.25,5.25,5.25,0,0,1-1.56.7,5.43,5.43,0,0,1-6.65-3.84,5.42,5.42,0,0,1,.24-3.52l-1.08-.62a1.64,1.64,0,0,1-1,.33,1.64,1.64,0,0,1-1-.33l-1.09.63a5.43,5.43,0,0,1,.26,3.55,5.43,5.43,0,0,1-6.66,3.84m4.6-21.37a5.7,5.7,0,0,1,1.38-1,6.8,6.8,0,0,0-2.3,1.51,6.75,6.75,0,0,0-1.06,8.16,6.75,6.75,0,0,0-6.49,5,7,7,0,0,0-.15,2.75,5.41,5.41,0,0,1,.18-1.69,5.43,5.43,0,0,1,6.65-3.85,5.37,5.37,0,0,1,2.91,1.95l1.1-.64a1.1,1.1,0,0,1,0-.18,1.67,1.67,0,0,1,1-1.53v-1.23a5.43,5.43,0,0,1-3.21-1.55,5.44,5.44,0,0,1,0-7.69m16.23,13.62a6.73,6.73,0,0,0-6.53-5A6.76,6.76,0,0,0-460,105.4a6.7,6.7,0,0,0-2.3-1.51,5.52,5.52,0,0,1,1.38,1,5.44,5.44,0,0,1,0,7.69,5.41,5.41,0,0,1-3.13,1.54v1.24a1.66,1.66,0,0,1,1,1.53,1.09,1.09,0,0,1,0,.18l1.07.62a5.49,5.49,0,0,1,2.93-2,5.45,5.45,0,0,1,6.66,3.84,5.5,5.5,0,0,1,.17,1.7,6.6,6.6,0,0,0-.15-2.75" transform="translate(477.33 -103.89)" fill="#f5c000"/><path d="M-459.86,116.77c0,.06,0,.12,0,.18a4.91,4.91,0,0,1-2.56,4.3,5.32,5.32,0,0,0,.15,1,4.9,4.9,0,0,0,.47,1.13A7.05,7.05,0,0,0-457.7,117a5.53,5.53,0,0,0,0-.71,4.57,4.57,0,0,0-1.16.16,5,5,0,0,0-1,.37m-9.78.18v-.14a5,5,0,0,0-1-.37,5.07,5.07,0,0,0-1.16-.16c0,.22,0,.44,0,.67a7,7,0,0,0,4.1,6.4,4.62,4.62,0,0,0,.45-1.1,5,5,0,0,0,.16-1,4.88,4.88,0,0,1-2.56-4.3m8.93-5.77a6.94,6.94,0,0,0-4-1.28,7,7,0,0,0-4.09,1.31,5,5,0,0,0,.7.89,4.85,4.85,0,0,0,.84.67,4.92,4.92,0,0,1,2.55-.72,4.92,4.92,0,0,1,2.52.7,4.85,4.85,0,0,0,.8-.65,4.87,4.87,0,0,0,.72-.92" transform="translate(477.33 -103.89)" fill="#fff"/></svg>