<svg xmlns="http://www.w3.org/2000/svg" viewBox="0 0 17.32 26.27"><title>lampadas</title><rect x="4.48" y="20.3" width="8.34" height="1.03" fill="#f5c000"/><rect x="5.12" y="22.77" width="7.05" height="1.03" fill="#f5c000"/><rect x="6.89" y="25.24" width="3.51" height="1.03" fill="#f5c000"/><path d="M4.16-20.3a8.63,8.63,0,0,0-8.64,8.66,8.64,8.64,0,0,0,2.14,5.7A13.89,13.89,0,0,1,.23-1.44a.06.06,0,0,1,0,0H1.81V-9.77H3.05V-1.4H5.32V-9.77H6.56V-1.4H8.13v0a14.27,14.27,0,0,1,2.57-4.5,8.6,8.6,0,0,0,2.15-5.7A8.66,8.66,0,0,0,4.16-20.3" transform="translate(4.48 20.3)" fill="#fff"/></svg>