<svg xmlns="http://www.w3.org/2000/svg" viewBox="0 0 18 25.5"><title>lodo</title><path d="M-303.75,142.91a8.1,8.1,0,0,0,8.1-8.1,8.1,8.1,0,0,0-8.1-8.1,8.1,8.1,0,0,0-8.1,8.1,8.1,8.1,0,0,0,8.1,8.1" transform="translate(312.75 -117.4)" fill="#fff"/><path d="M-297.33,130.45a1.49,1.49,0,0,1-1.49,1.49,1.49,1.49,0,0,1-1.49-1.49,1.49,1.49,0,0,1,1.49-1.49,1.49,1.49,0,0,1,1.49,1.49m1.09,3.36a7.57,7.57,0,0,1-7.51,7.61,7.24,7.24,0,0,1-1.24-.11,3.56,3.56,0,0,1-.09-.73,3.37,3.37,0,0,1,.23-1.2,4.18,4.18,0,0,1-2.61-3.87,4.17,4.17,0,0,1,4.17-4.17,4.18,4.18,0,0,1,3.54,2,4.14,4.14,0,0,1,2.42-.78,4.62,4.62,0,0,1,1,.12,6.19,6.19,0,0,1,.1,1.16M-307,140.35a.74.74,0,0,1-.74-.74.75.75,0,0,1,.74-.75.76.76,0,0,1,.75.75.75.75,0,0,1-.75.74M-301.8,129a.89.89,0,0,1,.89.89.89.89,0,0,1-.89.9.89.89,0,0,1-.89-.9.89.89,0,0,1,.89-.89m-1.89-11.55h-.12c-1.07,2.67-5.35,8.6-5.8,9.21-1.68,2.27-3.14,4.23-3.14,7.19a9.06,9.06,0,0,0,9,9.1,9.06,9.06,0,0,0,9-9.1c0-3-1.45-4.92-3.13-7.18-.46-.62-4.74-6.56-5.81-9.22" transform="translate(312.75 -117.4)" fill="#f5c000"/></svg>