<svg xmlns="http://www.w3.org/2000/svg" viewBox="0 0 21.6 20.41"><title>medicamentos</title><path d="M-138.16,127.19V117a5.11,5.11,0,0,0-4.66,5.09,5.1,5.1,0,0,0,4.66,5.08m5.55-5.08a5.11,5.11,0,0,0-4.66-5.09v10.17a5.1,5.1,0,0,0,4.66-5.08" transform="translate(154.21 -106.78)" fill="#f5c000"/><path d="M-153.16,116.3l4.5-4.5,5.4,4.5-4.5,4.5s-1.8,1.71-1.8,1.31a3.87,3.87,0,0,1-3.6-2.21c-.45-.9,0-3.6,0-3.6" transform="translate(154.21 -106.78)" fill="#fff"/><path d="M-144.09,117l-.21-.22-4,4a2.82,2.82,0,0,1-4,0,2.81,2.81,0,0,1,0-4l4-4Zm4.63-3.48a3.94,3.94,0,0,0,0-5.57,4,4,0,0,0-5.57,0l-8,8a4,4,0,0,0,0,5.57,4,4,0,0,0,5.57,0Z" transform="translate(154.21 -106.78)" fill="#f5c000"/></svg>