<svg xmlns="http://www.w3.org/2000/svg" viewBox="0 0 21.94 27.25"><title>perfuro</title><polygon points="5.34 15.44 13.44 4.91 17.49 8.96 10.2 18.68 5.34 15.44" fill="#fff"/><path d="M11.8,3.86,5,13,1.16,10.17l1.26-1.6L4.31,10,5,9.17,3.06,7.73,4.23,6.17l2,1.48.58-.89L4.87,5.33,6.05,3.77,7.94,5.21l.63-.85L6.68,2.93,8,1Zm-.58-8.77-.63.84,1.49,1.12L9.36.65,7.8-.52l-.94-.71-.63.84.94.71L-4.07,15-3.23,18l-2.11,4.39,3.76-3.15h3L12.68,4.48l.94.71.63-.84L13,3.44l-1.28-1,2.72-3.6L16,0a3.42,3.42,0,0,0,.63-.84Z" transform="translate(5.34 4.91)" fill="#f5c000"/></svg>