<svg xmlns="http://www.w3.org/2000/svg" viewBox="0 0 19.14 28.12"><title>perigoso</title><path d="M-466.31,220.83a2.44,2.44,0,0,1,2.46,2.42,2.45,2.45,0,0,1-2.46,2.43,2.44,2.44,0,0,1-2.45-2.43,2.43,2.43,0,0,1,2.45-2.42m3.86,5.86,1,1.4a.45.45,0,0,1-.35.71h-2a.45.45,0,0,1-.35-.71l1-1.4a.43.43,0,0,1,.7,0m3.16-5.86a2.43,2.43,0,0,1,2.45,2.42,2.44,2.44,0,0,1-2.45,2.43,2.45,2.45,0,0,1-2.46-2.43,2.44,2.44,0,0,1,2.46-2.42m-9.91,7.08c.9.5,1.49.71,1.49,1.73v.4a1.65,1.65,0,0,0,1.4,1.71v1.58h1.4v-1.44h1.41v1.44h1.4v-1.44h1.4v1.44h1.41v-1.58a1.65,1.65,0,0,0,1.4-1.71v-.39c0-1,.6-1.24,1.5-1.74a5.27,5.27,0,0,0,2.71-5,9.12,9.12,0,0,0-11.68-8.67,9,9,0,0,0-6.56,8.66,5.25,5.25,0,0,0,2.72,5" transform="translate(472.37 -213.89)" fill="#fff"/><path d="M-454.2,237.15a1.4,1.4,0,0,0-1.77.93l-3.43-1.15,3.43-1.14a1.4,1.4,0,0,0,1.77.93,1.46,1.46,0,0,0,.9-1.82,1.42,1.42,0,0,0-.79-.87,1.47,1.47,0,0,0,.14-1.18,1.4,1.4,0,0,0-1.77-.93,1.45,1.45,0,0,0-.9,1.82l-6.18,2.06-6.18-2.06a1.46,1.46,0,0,0-.9-1.82,1.4,1.4,0,0,0-1.77.93,1.47,1.47,0,0,0,.13,1.18,1.41,1.41,0,0,0-.78.87,1.45,1.45,0,0,0,.9,1.82,1.4,1.4,0,0,0,1.77-.93l3.42,1.14-3.42,1.15a1.4,1.4,0,0,0-1.77-.93,1.45,1.45,0,0,0-.9,1.82,1.41,1.41,0,0,0,.78.87,1.46,1.46,0,0,0-.13,1.18,1.4,1.4,0,0,0,1.77.93,1.46,1.46,0,0,0,.9-1.82l6.18-2.06,6.18,2.06a1.45,1.45,0,0,0,.9,1.82,1.4,1.4,0,0,0,1.77-.93,1.46,1.46,0,0,0-.14-1.18,1.42,1.42,0,0,0,.79-.87,1.46,1.46,0,0,0-.9-1.82" transform="translate(472.37 -213.89)" fill="#f5c000"/></svg>