<svg xmlns="http://www.w3.org/2000/svg" viewBox="0 0 22.5 24.16"><title>quimicos</title><path d="M174.64,19.48a2.88,2.88,0,0,1-2.77,1.29h-14a2.9,2.9,0,0,1-2.78-1.29,3.56,3.56,0,0,1,.48-3.28l5.4-9.52a3,3,0,0,0,.34-1.3V1.52H160V-.71l1.21,0h7.45l1.21,0V1.52h-1.28V5.67a3.06,3.06,0,0,0,.34,1.3l5.24,9.23a3.58,3.58,0,0,1,.47,3.28m.57-4L170,6.25a1.66,1.66,0,0,1-.15-.58V2.88h1.27V-2H158.76V2.88H160v2.5a1.47,1.47,0,0,1-.15.58l-5.4,9.52a5,5,0,0,0-.51,4.66,4,4,0,0,0,3.86,2h14a4,4,0,0,0,3.85-2,4.91,4.91,0,0,0-.51-4.66" transform="translate(-153.6 2.03)" fill="#fff"/><path d="M165.34,16.78a1,1,0,1,1,1-1,1,1,0,0,1-1,1m-1.71-2.48a.74.74,0,0,1-.73-.75.73.73,0,1,1,1.46,0,.74.74,0,0,1-.73.75m-2.45,3A1.25,1.25,0,1,1,162.41,16a1.24,1.24,0,0,1-1.23,1.24m11.39.3L167.7,9H162l-4.88,8.6h0a3.21,3.21,0,0,0-.21.41.38.38,0,0,0,.27.53,2.63,2.63,0,0,0,.43,0h14.45a2.58,2.58,0,0,0,.42,0,.37.37,0,0,0,.27-.53c-.05-.12-.12-.26-.2-.41" transform="translate(-153.6 2.03)" fill="#f5c000"/></svg>