<svg xmlns="http://www.w3.org/2000/svg" viewBox="0 0 28.22 25.94"><title>reciclaveis</title><polygon points="13.99 5.6 16.99 10.79 15.88 11.43 20.55 14.12 20.55 8.73 19.41 9.39 13.99 0 8.22 9.99 10.65 11.39 13.99 5.6" fill="#f5c000"/><polygon points="7.78 16.77 8.99 17.47 8.99 12.09 4.33 14.78 5.35 15.37 0 24.64 11.54 24.64 11.54 21.84 4.85 21.84 7.78 16.77" fill="#f5c000"/><polygon points="22.45 14.65 20.02 16.05 23.37 21.84 17.37 21.84 17.37 20.55 12.71 23.25 17.37 25.94 17.37 24.64 28.21 24.64 22.45 14.65" fill="#f5c000"/></svg>