<svg xmlns="http://www.w3.org/2000/svg" viewBox="0 0 32.08 22"><title>alimenticia</title><path d="M188,254a8,8,0,1,0-8-8,8,8,0,0,0,8,8" transform="translate(-171.96 -235)" fill="#fff"/><path d="M193.77,251.26a7.44,7.44,0,0,1-10.52,0l.81-.81a6.29,6.29,0,1,0,8.9-8.9l.81-.81a7.44,7.44,0,0,1,0,10.52M188.51,235a11,11,0,1,0,11,11,11,11,0,0,0-11-11" transform="translate(-171.96 -235)" fill="#f5c000"/><path d="M174.93,240.87h-.74v-2.64h-.74v2.64h-.75v-2.64H172v3A1.88,1.88,0,0,0,173.1,243l-.24,9.81a1,1,0,1,0,1.92,0l-.24-9.81a1.88,1.88,0,0,0,1.14-1.72v-3h-.75Z" transform="translate(-171.96 -235)" fill="#f5c000"/><path d="M204,238.67a1.23,1.23,0,0,0-1.67-1.14,1.62,1.62,0,0,0-1,1.5v4.47a2.78,2.78,0,0,0,1,2.1l-.2,8a1,1,0,1,0,1.93,0l-.22-9Z" transform="translate(-171.96 -235)" fill="#f5c000"/></svg>