<svg xmlns="http://www.w3.org/2000/svg" viewBox="0 0 28 28"><title>contrucao-civil</title><path d="M341.31,240.69l-4.51,4.52a1.07,1.07,0,0,1-1.51-1.51l4.52-4.51L336,235.36l-4.58,4.58a6.48,6.48,0,0,0,9.16,9.16l4.58-4.58Z" transform="translate(-329.5 -223)" fill="#f5c000"/><path d="M351.32,225.56l3.62,3.62-.19.2a1.55,1.55,0,0,1-2.17,0l-1.46-1.46a1.55,1.55,0,0,1,0-2.17Zm-1.48,3.63h0l-10,10,1.5,1.5,10-10h0a3.33,3.33,0,0,0,4.71,0l1.48-1.48L351.32,223l-1.48,1.48a3.33,3.33,0,0,0,0,4.71" transform="translate(-329.5 -223)" fill="#fff"/></svg>