<svg xmlns="http://www.w3.org/2000/svg" viewBox="0 0 29.77 20"><title>educacao</title><path d="M488.13,243.35s12.57-2,14.37,1c6.63-2.15,9.63-2.89,13.63-.94v15.94s-11-2-13,0c-2,0-14.4-4-15,0s0-16,0-16" transform="translate(-487.62 -241)" fill="#fff"/><path d="M515.38,245.34a16.51,16.51,0,0,0-5.44-.9,16.83,16.83,0,0,0-4.52.61v1.27a16.83,16.83,0,0,1,4.52-.61,16.51,16.51,0,0,1,5.44.89v2.17a16.51,16.51,0,0,0-5.44-.9,16.83,16.83,0,0,0-4.52.61v1.27a16.83,16.83,0,0,1,4.52-.61,16.51,16.51,0,0,1,5.44.89v2.17a16.51,16.51,0,0,0-5.44-.9,16.83,16.83,0,0,0-4.52.61v1.27a16.83,16.83,0,0,1,4.52-.61,16.51,16.51,0,0,1,5.44.89v2.17a16.51,16.51,0,0,0-5.44-.9,16.83,16.83,0,0,0-4.52.61v1.27a16.83,16.83,0,0,1,4.52-.61,16.51,16.51,0,0,1,5.44.89v1.28a20.91,20.91,0,0,0-10.88,0V243.9a16.89,16.89,0,0,1,10.88,0Zm-14.88.93a16.89,16.89,0,0,0-10.88,0V245a17.07,17.07,0,0,1,10.88,0Zm0,3.43a16.89,16.89,0,0,0-10.88,0v-1.27a17.07,17.07,0,0,1,10.88,0Zm0,3.43a16.89,16.89,0,0,0-10.88,0v-1.27a17.07,17.07,0,0,1,10.88,0Zm0,3.43a16.89,16.89,0,0,0-10.88,0v-1.27a17.07,17.07,0,0,1,10.88,0ZM509.94,241a18.24,18.24,0,0,0-7.44,1.54,18.74,18.74,0,0,0-14.88,0V261a18.74,18.74,0,0,1,14.88,0,18.74,18.74,0,0,1,14.88,0V242.54a18.24,18.24,0,0,0-7.44-1.54" transform="translate(-487.62 -241)" fill="#f5c000"/></svg>