<svg xmlns="http://www.w3.org/2000/svg" viewBox="0 0 34.8 22"><title>industria</title><path d="M-456.88,114.72a3.85,3.85,0,0,1-3.86-3.85,3.85,3.85,0,0,1,3.86-3.85,3.85,3.85,0,0,1,3.85,3.85,3.85,3.85,0,0,1-3.85,3.85m7.89-2.8v-2.1l-1.59-.7a6.31,6.31,0,0,0-.6-1.47l.62-1.62-1.48-1.49-1.62.63a6.8,6.8,0,0,0-1.47-.61l-.71-1.59h-2.09l-.71,1.59a6.8,6.8,0,0,0-1.47.61l-1.62-.63-1.48,1.49.63,1.62a6.33,6.33,0,0,0-.61,1.47l-1.59.7v2.1l1.59.7a6.33,6.33,0,0,0,.61,1.47l-.63,1.62,1.48,1.48,1.62-.62a6.8,6.8,0,0,0,1.47.61l.71,1.59h2.09l.71-1.59a6.8,6.8,0,0,0,1.47-.61l1.62.62,1.48-1.48-.62-1.62a6.31,6.31,0,0,0,.6-1.47Z" transform="translate(483.79 -102.97)" fill="#fff"/><path d="M-473.77,121.12a6.16,6.16,0,0,1-6.17-6.16,6.17,6.17,0,0,1,6.17-6.17,6.16,6.16,0,0,1,6.16,6.17,6.16,6.16,0,0,1-6.16,6.16m7.22-11,.6-1.55-1.48-1.48-1.55.59a8.5,8.5,0,0,0-3.07-1.27l-.67-1.52h-2.1l-.67,1.52a8.43,8.43,0,0,0-3.07,1.27l-1.55-.59-1.48,1.48.59,1.55a8.61,8.61,0,0,0-1.27,3.07l-1.52.67V116l1.52.68a8.76,8.76,0,0,0,1.27,3.07l-.59,1.55,1.48,1.48,1.55-.6a8.63,8.63,0,0,0,3.07,1.28l.67,1.51h2.1l.67-1.51a8.7,8.7,0,0,0,3.07-1.28l1.55.6,1.48-1.48-.6-1.55a8.78,8.78,0,0,0,1.28-3.07l1.51-.68v-2.09l-1.51-.67a8.63,8.63,0,0,0-1.28-3.07" transform="translate(483.79 -102.97)" fill="#f5c000"/><path d="M-473.77,110.33A4.63,4.63,0,0,0-478.4,115a4.62,4.62,0,0,0,4.63,4.62,4.62,4.62,0,0,0,4.62-4.62,4.62,4.62,0,0,0-4.62-4.63" transform="translate(483.79 -102.97)" fill="#fff"/></svg>