<svg xmlns="http://www.w3.org/2000/svg" viewBox="0 0 26.44 23"><title>saude</title><path d="M3.28,9.1H-1V3.33H3.28V-1H9.05V3.33h2.56a8.08,8.08,0,0,0,.35-.8,5.89,5.89,0,0,0,.47-2A6.89,6.89,0,0,0,5.54-6.37,6.88,6.88,0,0,0-.79-2.21,6.89,6.89,0,0,0-7.12-6.37,6.88,6.88,0,0,0-14,.52a6.1,6.1,0,0,0,.46,2,11.52,11.52,0,0,0,2.6,3.94L-.79,16.63l4.07-4.08Z" transform="translate(14.01 6.37)" fill="#f5c000"/><polygon points="26.26 10.54 22.1 10.54 22.1 6.38 18.18 6.38 18.18 10.54 14.01 10.54 14.01 14.46 18.18 14.46 18.18 18.63 22.1 18.63 22.1 14.46 26.26 14.46 26.26 10.54" fill="#fff"/></svg>