<svg xmlns="http://www.w3.org/2000/svg" viewBox="0 0 24.8 31.25"><title>varejo</title><rect x="1.4" y="10.63" width="22" height="19" fill="#f5c000"/><path d="M15.06,13.35H6.94v1.38h8.12Zm0-3H6.94v1.38h8.12Zm6.27,8.17H.67V.63H4.93V2.91a1.73,1.73,0,1,0,1.38,0V.63h9.38V2.91a1.73,1.73,0,1,0,1.37,0V.63h4.27Zm-5.64-20H6.31V-4.56A4.7,4.7,0,0,1,11-9.25a4.7,4.7,0,0,1,4.69,4.69ZM23.4,20.62v-22H17.06V-4.56A6.08,6.08,0,0,0,11-10.63,6.09,6.09,0,0,0,4.93-4.56v3.13H-1.4V20.62Z" transform="translate(1.4 10.63)" fill="#fff"/></svg>