<?xml version="1.0" encoding="utf-8"?><svg xmlns="http://www.w3.org/2000/svg" viewBox="0 0 62.51 56.96"><title>icone-gestao-residuos-branco</title><path d="M22.5,52.4H20v-30h2.5Zm-9.06,0H11.23l-2.62-30h2.51l2.62,30ZM32,44.3l-.7,8.1H29.05l-.29,0,.74-8.45L26,43.4,30,17H1.25L5,57H37.54L38.62,45.3Z" fill="#fff"/><polygon points="30.89 11.15 28.3 11.15 27.46 8.65 15.04 8.65 14.2 11.15 0 11.15 0 14.9 30.32 14.9 30.89 11.15" fill="#fff"/><path d="M46.57,36.81,41.8,33.08l-5.67,4.47-1.56-2,7.23-5.69,4.7,3.68,8.07-6.88,1.63,1.91ZM36,18.59,50.66,20.8l-.37,2.49L35.57,21.08Zm1.18-7.89,21,3.17-.38,2.49-21-3.17ZM49,3a1.48,1.48,0,0,1,1.24,1.68,1.2,1.2,0,0,1-.17.47A1.4,1.4,0,0,1,49,5.87a1.26,1.26,0,0,1-.39,0,1.63,1.63,0,0,1-.37-.13,1.45,1.45,0,0,1-.84-1,1.38,1.38,0,0,1,0-.5A1.48,1.48,0,0,1,49,3m6.77,5.5-.63-2.58-2.1-.32a3.74,3.74,0,0,0,.12-.48,4.43,4.43,0,1,0-8.76-1.32,2.79,2.79,0,0,0,0,.5L42.32,4,41,6.23l-6.7-1L28.82,41.3l28.26,4.25L62.51,9.48Z" fill="#f4c000"/></svg>