<?xml version="1.0" encoding="utf-8"?><svg xmlns="http://www.w3.org/2000/svg" viewBox="0 0 61.88 60.81"><title>icone-cxdagua-branco</title><rect x="23.55" y="34.34" width="15.47" height="3.15" fill="#fff"/><rect x="26.34" y="40.33" width="9.9" height="3.15" fill="#fff"/><path d="M3.44,16.38v6.94H8.7v19A18.29,18.29,0,0,0,26.82,60.81h9.55A18.29,18.29,0,0,0,54.49,42.36v-19h4.64V16.38Zm31.8,2.15,1.85,4.41-1.7.75-1.86-4.41Zm-4.88.69h1.86v5H30.36Zm-3-.69,1.71.75-1.86,4.41-1.7-.75Zm24.3,23.41a16.25,16.25,0,0,1-16.11,16.4H27a16.25,16.25,0,0,1-16.1-16.4l-.07-16,1.93.86a4.85,4.85,0,0,0,3.88,0l2.26-1,2.27,1a4.85,4.85,0,0,0,3.88,0l2.26-1,2.27,1a4.85,4.85,0,0,0,3.88,0l2.26-1,2.27,1a4.85,4.85,0,0,0,3.88,0l2.26-1,2.27,1a4.85,4.85,0,0,0,3.88,0l1.39-.62Z" fill="#fff"/><polygon points="37.48 11.34 37.48 0 25.1 0 25.1 11.34 23.55 11.34 23.55 14.49 39.02 14.49 39.02 11.34 37.48 11.34" fill="#f4c000"/><path d="M21.35,44.74H15.78V40.33c0-1.46-1.66-1.57-2.17-1.57H0V33.08H13.61c3.11,0,7.74,1.93,7.74,7.25Z" fill="#f4c000"/><path d="M40.53,44.74H46.1V40.33c0-1.46,1.65-1.57,2.16-1.57H61.88V33.08H48.26c-3.11,0-7.73,1.93-7.73,7.25Z" fill="#f4c000"/></svg>