<?xml version="1.0" encoding="utf-8"?><svg xmlns="http://www.w3.org/2000/svg" viewBox="0 0 40 56.68"><title>icone-lodo-branco</title><path d="M20.13,0h-.26C17.49,5.94,8,19.13,7,20.48c-3.74,5.05-7,9.41-7,16A20.13,20.13,0,0,0,20,56.68,20.13,20.13,0,0,0,40,36.46c0-6.6-3.23-10.94-7-16C32,19.13,22.51,5.93,20.13,0" fill="#fff"/><path d="M36.69,36.46a15.18,15.18,0,0,0-.22-2.57,9,9,0,0,0-2.21-.27,9.22,9.22,0,0,0-5.37,1.72,9.27,9.27,0,1,0-11.33,13.5,7.06,7.06,0,0,0-.51,2.65,7.36,7.36,0,0,0,.19,1.64A16.69,16.69,0,0,0,36.69,36.46Z" fill="#f4c000"/><circle cx="12.66" cy="49.34" r="1.66" fill="#f4c000"/><circle cx="24.33" cy="27.66" r="1.99" fill="#f4c000"/><path d="M34.26,29A3.31,3.31,0,1,0,31,32.3,3.31,3.31,0,0,0,34.26,29Z" fill="#f4c000"/></svg>