<?xml version="1.0" encoding="utf-8"?><svg xmlns="http://www.w3.org/2000/svg" viewBox="0 0 56.25 58.33"><title>icone-pgrs-branco</title><polygon points="34.55 2.5 33.71 0 21.29 0 20.45 2.5 6.25 2.5 6.25 6.25 48.75 6.25 48.75 2.5 34.55 2.5" fill="#fff"/><path d="M16.91,37.22,14.86,13.75h2.51l2,23.34h6.84V13.75h2.5V37.09h5.62a5.41,5.41,0,0,1,1.21.13l2.05-23.47h2.51L38,38.42a7.07,7.07,0,0,1,.69.65,5.64,5.64,0,0,1,1.26,4.57,5.42,5.42,0,0,1-1.38,2.79,3.73,3.73,0,0,0,1.9-.78l3.87-3.1L47.5,8.35H7.5l2.93,31.5a14,14,0,0,1,6.48-2.63" fill="#fff"/><path d="M55.2,40.38a3.22,3.22,0,0,0-4.16,0l-9,7.21A6.21,6.21,0,0,1,38.11,49H26.56a1.57,1.57,0,0,1,0-3.13h7.65a3.24,3.24,0,0,0,3.25-2.59,3.13,3.13,0,0,0-3.09-3.66H18.75a11.5,11.5,0,0,0-7.24,2.57l-4.44,3.6H0V58.33H36.4A6.24,6.24,0,0,0,40.31,57L55.08,45.15a3.12,3.12,0,0,0,.12-4.77" fill="#f4c000"/></svg>