<svg width="80" height="47" viewBox="0 0 80 47" fill="none" xmlns="http://www.w3.org/2000/svg">
<g clip-path="url(#clip0)">
<path d="M29.08 42.37H20.99V46.42H29.08V42.37Z" fill="#F4C000"/>
<path d="M67.51 42.37H59.42V46.42H67.51V42.37Z" fill="#F4C000"/>
<path d="M77.18 0.05V0H10.62V40.45H77.18V40.4C78.8675 33.8103 79.7076 27.0323 79.68 20.23C79.7084 13.4244 78.8683 6.64294 77.18 0.05V0.05Z" fill="#F4C000"/>
<path d="M1.43 24.12C1.369 24.12 1.3105 24.0958 1.26737 24.0526C1.22423 24.0095 1.2 23.951 1.2 23.89V16.56C1.2 16.499 1.22423 16.4405 1.26737 16.3974C1.3105 16.3542 1.369 16.33 1.43 16.33H3C3 17.62 2.91 18.91 2.91 20.23C2.91 21.55 2.91 22.83 3 24.12H1.43ZM5.39 0V0.05C4.11419 4.98711 3.33037 10.0384 3.05 15.13H1.43C1.05074 15.13 0.687014 15.2807 0.418837 15.5488C0.15066 15.817 0 16.1807 0 16.56L0 23.89C0 24.2693 0.15066 24.633 0.418837 24.9012C0.687014 25.1693 1.05074 25.32 1.43 25.32H3.05C3.33037 30.4116 4.11419 35.4629 5.39 40.4V40.45H8.39V0H5.39Z" fill="white"/>
<path d="M72.71 16.44H14.69V18.96H72.71V16.44Z" fill="white"/>
<path d="M72.71 21.49H14.69V24.01H72.71V21.49Z" fill="white"/>
</g>
<defs>
<clipPath id="clip0">
<rect width="79.68" height="46.42" fill="white"/>
</clipPath>
</defs>
</svg>
