<svg xmlns="http://www.w3.org/2000/svg" viewBox="0 0 27.24 29.01"><title>servico</title><polygon points="3.62 27.71 9.45 26.82 9.89 23.95 9.95 23.58 3.14 24.63 3.62 27.71" fill="#fff"/><path d="M22.89-19.7a1.45,1.45,0,0,0-1.64,1.19l-1.1,7.06-.52-.08,1.31-8.34a1.43,1.43,0,0,0-1.19-1.63,1.43,1.43,0,0,0-1.63,1.19L16.81-12,16.3-12l1.34-8.6a1.42,1.42,0,0,0-1.19-1.63,1.43,1.43,0,0,0-1.63,1.19l-1.35,8.6L13-12.57l1.19-7.57A1.44,1.44,0,0,0,13-21.78a1.44,1.44,0,0,0-1.64,1.19L10.14-13,9.61-9.66,7.22-12.95a1.55,1.55,0,0,0-2.16-.34,1.55,1.55,0,0,0-.34,2.16l3.9,7.81L8.21-.7,21,1.31l1-6.16L23-11l1.11-7a1.45,1.45,0,0,0-1.19-1.64" transform="translate(3.14 23.58)" fill="#f5c000"/><rect x="12.66" y="-3.61" width="3.12" height="12.99" transform="translate(12.32 40.07) rotate(-81.09)" fill="#fff"/><path d="M4.47-14.41a2.8,2.8,0,0,1,1.94-.42,3,3,0,0,1,.93.33l-1.2-7.87a1.43,1.43,0,0,0-1.63-1.2,1.43,1.43,0,0,0-1.2,1.63Z" transform="translate(3.14 23.58)" fill="#f5c000"/><path d="M7.94-14a3.52,3.52,0,0,1,.31.35l.58.8,1.1-7-.3-1.94A1.43,1.43,0,0,0,8-23a1.43,1.43,0,0,0-1.19,1.63Z" transform="translate(3.14 23.58)" fill="#f5c000"/><path d="M3.19-12.48A2.75,2.75,0,0,1,4-14L2.84-21.6a1.43,1.43,0,0,0-1.63-1.2A1.43,1.43,0,0,0,0-21.17l1.28,8.34-.51.08L-.3-19.81A1.43,1.43,0,0,0-1.93-21a1.42,1.42,0,0,0-1.2,1.62L-2-12.31l.95,6.16L-.16,0,7-1.08v0l.32-2L3.62-10.48a2.82,2.82,0,0,1-.43-2" transform="translate(3.14 23.58)" fill="#f5c000"/></svg>